# xmcd
#
# Track frame offsets:
#	150
#	30693
#	42912
#	81203
#	115773
#	143154
#
# Disc length: 2284
#
# Revision: 1
# Processed by: cddbd v1.5.1PL0 Copyright (c) Steve Scherf et al.
# Submitted via: CDex 1.50Beta7
# Normalized: r0:TRMNUM
#
DISCID=4708ea06
DTITLE=Alfredo Valdés, Jr. and His All-Star Band - Jamming in the Barn
DYEAR=1900
DGENRE=Salsa
TTITLE0=El Cachumbambe
TTITLE1=Preciosa
TTITLE2=Para Mi
TTITLE3=Generacion Africana
TTITLE4=Alma Guajira
TTITLE5=Yo Si Soy Mentiroso
EXTD=
EXTT0=
EXTT1=
EXTT2=
EXTT3=
EXTT4=
EXTT5=
PLAYORDER=
